name C:\Users\u0101727\Documents\MyRepositories\paper-ad\trackingsimulations_3d\Results\TrackSim\IK_c18.mot
datacolumns 32
datarows 17
range 3.85000000 4.10600000
endheader
time	pelvis_tilt	pelvis_list	pelvis_rotation	pelvis_tx	pelvis_ty	pelvis_tz	hip_flexion_l	hip_adduction_l	hip_rotation_l	hip_flexion_r	hip_adduction_r	hip_rotation_r	knee_angle_l	knee_angle_r	ankle_angle_l	ankle_angle_r	subtalar_angle_l	subtalar_angle_r	lumbar_extension	lumbar_bending	lumbar_rotation	arm_flex_l	arm_add_l	arm_rot_l	arm_flex_r	arm_add_r	arm_rot_r	elbow_flex_l	elbow_flex_r	pro_sup_l	pro_sup_r	
          3.85000000	          0.36691483	         -3.33176073	          7.02434192	          0.01914864	          0.91620734	         -0.22322585	        -11.20667637	         -4.85378035	          1.51773220	         29.44080344	          4.15077689	         -7.65041071	        -35.42196157	        -30.57282385	         -7.15108678	         -6.40246489	         13.05551848	        -11.43842579	         -3.80077816	          5.53177335	         -8.47269134	         -1.77221639	        -14.60612170	         19.18078569	         -9.22898660	        -15.63233940	         14.49400763	         22.96880736	         11.69665788	         86.51662706	         86.51662706	
          3.86600000	          0.53299036	         -4.26118766	          6.87789780	          0.04227367	          0.91872241	         -0.22213385	         -9.14378495	         -5.95771664	          1.36170725	         28.29011080	          5.45398334	         -7.61487979	        -39.80805126	        -30.97758867	        -12.60036934	         -6.83691917	         12.06820936	        -11.76782156	         -3.58734224	          6.75083444	         -8.07077891	         -2.29164341	        -14.09081342	         19.47321486	         -9.03016934	        -15.92065998	         14.47773331	         21.83939192	         11.96976228	         86.51662706	         86.51662706	
          3.88200000	          0.72836457	         -5.02482541	          6.82890602	          0.06450344	          0.92126825	         -0.22131855	         -6.73416891	         -6.70678795	          1.87151991	         26.77062300	          6.49321574	         -7.86107871	        -44.41789583	        -30.96300637	        -16.06294544	         -6.22938038	         10.97803201	        -11.67639369	         -3.54678712	          7.77699512	         -7.68042618	         -2.66393215	        -13.63846167	         19.90642997	         -8.72240383	        -16.20971717	         14.34644800	         20.75083932	         12.41074985	         86.51662706	         86.51662706	
          3.89800000	          0.95037897	         -5.68922517	          6.87710685	          0.08582805	          0.92379592	         -0.22068161	         -4.11246150	         -7.21343205	          2.77068677	         24.89948029	          7.42116685	         -8.07600799	        -48.88343323	        -30.45034716	        -18.27676390	         -4.99194448	          9.74624662	        -11.27709306	         -3.66384517	          8.67733496	         -7.29055051	         -2.89338453	        -13.26962935	         20.48582301	         -8.33102001	        -16.51026289	         14.11886163	         19.76607595	         13.07855328	         86.51662706	         86.51662706	
          3.91400000	          1.17986063	         -6.16014122	          7.03400267	          0.10628127	          0.92642857	         -0.22022724	         -1.27687261	         -7.37054328	          3.95125081	         22.74840194	          8.16122345	         -8.14864982	        -53.18318531	        -29.49951318	        -19.20301159	         -3.40129156	          8.17552314	        -10.66622059	         -3.91320444	          9.33987251	         -6.92665243	         -2.99893578	        -13.01060549	         21.17124785	         -7.88851753	        -16.80491413	         13.82425198	         18.91483376	         14.02241597	         86.51662706	         86.51662706	
          3.93000000	          1.39419848	         -6.40354089	          7.30088931	          0.12595336	          0.92919265	         -0.21994740	          1.73599324	         -7.14465034	          5.31667271	         20.41570017	          8.66642512	         -8.12619770	        -57.21695426	        -28.21122102	        -18.47698528	         -1.66924582	          6.42271448	         -9.93789810	         -4.24746051	          9.72002059	         -6.60866959	         -3.01815695	        -12.87029868	         21.89378129	         -7.42946900	        -17.08784835	         13.48487021	         18.22720618	         15.25688794	         86.51662706	         86.51662706	
          3.94600000	          1.56579953	         -6.40146680	          7.62900517	          0.14499309	          0.93205179	         -0.21975639	          4.86019212	         -6.54676332	          6.72425580	         18.01104229	          8.91521771	         -8.04695197	        -60.76775325	        -26.71712760	        -16.83762813	          0.05915104	          5.10359561	         -9.15115458	         -4.60963401	          9.78776202	         -6.31545921	         -3.00623700	        -12.84808776	         22.55856356	         -6.98300108	        -17.35368641	         13.12183297	         17.72783481	         16.76006458	         86.51662706	         86.51662706	
          3.96200000	          1.66339405	         -6.18182910	          7.93650457	          0.16355621	          0.93489848	         -0.21953835	          8.02505945	         -5.64866882	          7.94948439	         15.64124023	          8.94295385	         -7.90415409	        -63.66249315	        -25.13914561	        -14.47970963	          1.68289127	          3.93488472	         -8.36359858	         -4.94045576	          9.56737837	         -5.99106100	         -3.02214067	        -12.92683699	         23.06563997	         -6.56559663	        -17.60689163	         12.75029986	         17.43960419	         18.47387332	         86.51662706	         86.51662706	
          3.97800000	          1.67415564	         -5.77110028	          8.13423619	          0.18177448	          0.93762111	         -0.21918728	         11.14598421	         -4.52933332	          8.84250380	         13.37423841	          8.77060911	         -7.75171300	        -65.74423518	        -23.58085609	        -11.79420141	          3.17891525	          2.98487471	         -7.59664658	         -5.21387681	          9.08586203	         -5.56360632	         -3.11011350	        -13.08283373	         23.32385364	         -6.18098498	        -17.85404172	         12.38379605	         17.37440228	         20.32608724	         86.51662706	         86.51662706	
          3.99400000	          1.59594126	         -5.22663579	          8.14232142	          0.19973296	          0.94009743	         -0.21859871	         14.15537162	         -3.31506548	          9.30489870	         11.26084413	          8.46537088	         -7.51099214	        -66.90871284	        -22.11904375	         -9.11630949	          4.52773014	          2.26644892	         -6.89077255	         -5.42396160	          8.40730028	         -4.96709002	         -3.29240083	        -13.28576548	         23.27618850	         -5.81648569	        -18.10862766	         12.03168181	         17.52384009	         22.24443096	         86.51662706	         86.51662706	
          4.01000000	          1.44733682	         -4.63136959	          7.93384552	          0.21749924	          0.94222711	         -0.21775110	         16.99292206	         -2.15286329	          9.31238596	          9.30443798	          8.10719379	         -7.16562839	        -67.11526455	        -20.77209265	         -6.59685896	          5.72441458	          1.52431797	         -6.24533454	         -5.58167807	          7.63432272	         -4.18967315	         -3.56988354	        -13.50073616	         22.91778133	         -5.44721494	        -18.39034214	         11.69711313	         17.85472922	         24.16408054	         86.51662706	         86.51662706	
          4.02600000	          1.26500680	         -4.05406043	          7.53594112	          0.23512439	          0.94393942	         -0.21670252	         19.60364017	         -1.14747974	          8.94774462	          7.47049329	          7.74744725	         -6.74474869	        -66.37770033	        -19.53277756	         -4.33683466	          6.79229013	          0.72746791	         -5.61465309	         -5.71580927	          6.85974808	         -3.27710534	         -3.92432336	        -13.69795894	         22.28988517	         -5.04331465	        -18.71588562	         11.38306443	         18.30979276	         26.04000387	         86.51662706	         86.51662706	
          4.04200000	          1.09419620	         -3.53658145	          6.99496892	          0.25264477	          0.94518753	         -0.21551979	         21.93322019	         -0.34742019	          8.33066215	          5.70831605	          7.42284357	         -6.22157057	        -64.73871533	        -18.39033592	         -2.46220086	          7.75283947	         -0.21209284	         -4.95460796	         -5.87081693	          6.14399968	         -2.29205253	         -4.32159256	        -13.85821849	         21.46795796	         -4.57660604	        -19.09348568	         11.09810663	         18.81595232	         27.84573404	         86.51662706	         86.51662706	
          4.05800000	          0.98012273	         -3.08887543	          6.36813110	          0.27011213	          0.94595470	         -0.21429093	         23.91779658	          0.25489683	          7.58190147	          3.95475251	          7.12293186	         -5.70302055	        -62.24314485	        -17.32840155	         -0.85992052	          8.64428693	         -1.40513527	         -4.18883186	         -6.09168337	          5.51001715	         -1.29977103	         -4.72114201	        -13.97052620	         20.54777283	         -4.02933944	        -19.52330558	         10.85661903	         19.29681234	         29.56287127	         86.51662706	         86.51662706	
          4.07400000	          0.95135203	         -2.71847542	          5.70661911	          0.28758631	          0.94623963	         -0.21308008	         25.51911979	          0.67525428	          6.80444428	          2.17023471	          6.84666886	         -5.27611380	        -58.94092792	        -16.33650391	          0.43890199	          9.46509056	         -2.81216566	         -3.28717154	         -6.40315459	          4.97223587	         -0.35369809	         -5.08587919	        -14.02855065	         19.62799065	         -3.39313823	        -20.00020475	         10.67525681	         19.68346883	         31.17780700	         86.51662706	         86.51662706	
          4.09000000	          1.01732253	         -2.43094709	          5.04647752	          0.30513901	          0.94606385	         -0.21192255	         26.72411494	          0.93120097	          6.06962319	          0.34153729	          6.60430392	         -4.96260611	        -54.88816987	        -15.41399373	          1.14476677	         10.18293743	         -4.37423830	         -2.28886971	         -6.80669539	          4.53718786	          0.51139734	         -5.38860351	        -14.02971844	         18.79863985	         -2.66970118	        -20.51371216	         10.56868468	         19.91998504	         32.67990145	         86.51662706	         86.51662706	
          4.10600000	          1.16605949	         -2.23292627	          4.41121302	          0.32285479	          0.94545939	         -0.21084436	         27.53397053	          1.04525463	          5.44465143	         -1.51155018	          6.40772242	         -4.81621787	        -50.15980470	        -14.58036334	          1.51120068	         10.76473557	         -5.76617533	         -1.23869735	         -7.27726667	          4.20857226	          1.27925337	         -5.61296048	        -13.97335003	         18.13628129	         -1.87276033	        -21.05127625	         10.54667227	         19.96505853	         34.05665451	         86.51662706	         86.51662706	
